{
    "asset" : {
        "generator" : "Khronos glTF Blender I/O v1.8.19",
        "version" : "2.0"
    },
    "scene" : 0,
    "scenes" : [
        {
            "name" : "Scene",
            "nodes" : [
                0
            ]
        }
    ],
    "nodes" : [
        {
            "mesh" : 0,
            "name" : "cactus_3"
        }
    ],
    "materials" : [
        {
            "doubleSided" : true,
            "name" : "cacturs_9",
            "pbrMetallicRoughness" : {}
        }
    ],
    "meshes" : [
        {
            "name" : "cactus_3",
            "primitives" : [
                {
                    "attributes" : {
                        "POSITION" : 0,
                        "NORMAL" : 1,
                        "TEXCOORD_0" : 2,
                        "TEXCOORD_1" : 3
                    },
                    "indices" : 4,
                    "material" : 0
                }
            ]
        }
    ],
    "accessors" : [
        {
            "bufferView" : 0,
            "componentType" : 5126,
            "count" : 374,
            "max" : [
                111.4923095703125,
                411.7282409667969,
                83.89368438720703
            ],
            "min" : [
                -63.97955322265625,
                -2.928251433331752e-06,
                -73.44185638427734
            ],
            "type" : "VEC3"
        },
        {
            "bufferView" : 1,
            "componentType" : 5126,
            "count" : 374,
            "type" : "VEC3"
        },
        {
            "bufferView" : 2,
            "componentType" : 5126,
            "count" : 374,
            "type" : "VEC2"
        },
        {
            "bufferView" : 3,
            "componentType" : 5126,
            "count" : 374,
            "type" : "VEC2"
        },
        {
            "bufferView" : 4,
            "componentType" : 5123,
            "count" : 1734,
            "type" : "SCALAR"
        }
    ],
    "bufferViews" : [
        {
            "buffer" : 0,
            "byteLength" : 4488,
            "byteOffset" : 0
        },
        {
            "buffer" : 0,
            "byteLength" : 4488,
            "byteOffset" : 4488
        },
        {
            "buffer" : 0,
            "byteLength" : 2992,
            "byteOffset" : 8976
        },
        {
            "buffer" : 0,
            "byteLength" : 2992,
            "byteOffset" : 11968
        },
        {
            "buffer" : 0,
            "byteLength" : 3468,
            "byteOffset" : 14960
        }
    ],
    "buffers" : [
        {
            "byteLength" : 18428,
            "uri" : "data:application/octet-stream;base64,"
        }
    ]
}
