{
    "asset" : {
        "generator" : "Khronos glTF Blender I/O v1.8.19",
        "version" : "2.0"
    },
    "scene" : 0,
    "scenes" : [
        {
            "name" : "Scene",
            "nodes" : [
                0
            ]
        }
    ],
    "nodes" : [
        {
            "mesh" : 0,
            "name" : "cactus_2"
        }
    ],
    "materials" : [
        {
            "doubleSided" : true,
            "name" : "cacturs_4",
            "pbrMetallicRoughness" : {}
        }
    ],
    "meshes" : [
        {
            "name" : "cactus_2",
            "primitives" : [
                {
                    "attributes" : {
                        "POSITION" : 0,
                        "NORMAL" : 1,
                        "TEXCOORD_0" : 2,
                        "TEXCOORD_1" : 3
                    },
                    "indices" : 4,
                    "material" : 0
                }
            ]
        }
    ],
    "accessors" : [
        {
            "bufferView" : 0,
            "componentType" : 5126,
            "count" : 537,
            "max" : [
                102.89885711669922,
                303.4281921386719,
                128.33010864257812
            ],
            "min" : [
                -117.71650695800781,
                -2.928251433331752e-06,
                -83.75812530517578
            ],
            "type" : "VEC3"
        },
        {
            "bufferView" : 1,
            "componentType" : 5126,
            "count" : 537,
            "type" : "VEC3"
        },
        {
            "bufferView" : 2,
            "componentType" : 5126,
            "count" : 537,
            "type" : "VEC2"
        },
        {
            "bufferView" : 3,
            "componentType" : 5126,
            "count" : 537,
            "type" : "VEC2"
        },
        {
            "bufferView" : 4,
            "componentType" : 5123,
            "count" : 2460,
            "type" : "SCALAR"
        }
    ],
    "bufferViews" : [
        {
            "buffer" : 0,
            "byteLength" : 6444,
            "byteOffset" : 0
        },
        {
            "buffer" : 0,
            "byteLength" : 6444,
            "byteOffset" : 6444
        },
        {
            "buffer" : 0,
            "byteLength" : 4296,
            "byteOffset" : 12888
        },
        {
            "buffer" : 0,
            "byteLength" : 4296,
            "byteOffset" : 17184
        },
        {
            "buffer" : 0,
            "byteLength" : 4920,
            "byteOffset" : 21480
        }
    ],
    "buffers" : [
        {
            "byteLength" : 26400,
            "uri" : "data:application/octet-stream;base64,"
        }
    ]
}
