{
    "asset" : {
        "generator" : "Khronos glTF Blender I/O v1.8.19",
        "version" : "2.0"
    },
    "scene" : 0,
    "scenes" : [
        {
            "name" : "Scene",
            "nodes" : [
                0
            ]
        }
    ],
    "nodes" : [
        {
            "mesh" : 0,
            "name" : "Clouds1",
            "scale" : [
                0.661612331867218,
                0.661612331867218,
                0.661612331867218
            ]
        }
    ],
    "meshes" : [
        {
            "name" : "Clouds1",
            "primitives" : [
                {
                    "attributes" : {
                        "POSITION" : 0,
                        "NORMAL" : 1
                    },
                    "indices" : 2
                }
            ]
        }
    ],
    "accessors" : [
        {
            "bufferView" : 0,
            "componentType" : 5126,
            "count" : 1284,
            "max" : [
                518.7255859375,
                314.39337158203125,
                204.03257751464844
            ],
            "min" : [
                -520.9169921875,
                -257.6766357421875,
                -208.573486328125
            ],
            "type" : "VEC3"
        },
        {
            "bufferView" : 1,
            "componentType" : 5126,
            "count" : 1284,
            "type" : "VEC3"
        },
        {
            "bufferView" : 2,
            "componentType" : 5123,
            "count" : 7692,
            "type" : "SCALAR"
        }
    ],
    "bufferViews" : [
        {
            "buffer" : 0,
            "byteLength" : 15408,
            "byteOffset" : 0
        },
        {
            "buffer" : 0,
            "byteLength" : 15408,
            "byteOffset" : 15408
        },
        {
            "buffer" : 0,
            "byteLength" : 15384,
            "byteOffset" : 30816
        }
    ],
    "buffers" : [
        {
            "byteLength" : 46200,
            "uri" : "data:application/octet-stream;base64,"
        }
    ]
}
