{
    "asset" : {
        "generator" : "Khronos glTF Blender I/O v1.8.19",
        "version" : "2.0"
    },
    "scene" : 0,
    "scenes" : [
        {
            "name" : "Scene",
            "nodes" : [
                0
            ]
        }
    ],
    "nodes" : [
        {
            "mesh" : 0,
            "name" : "Clouds2"
        }
    ],
    "meshes" : [
        {
            "name" : "Clouds2",
            "primitives" : [
                {
                    "attributes" : {
                        "POSITION" : 0,
                        "NORMAL" : 1
                    },
                    "indices" : 2
                }
            ]
        }
    ],
    "accessors" : [
        {
            "bufferView" : 0,
            "componentType" : 5126,
            "count" : 1204,
            "max" : [
                344.08538818359375,
                213.9560089111328,
                144.95179748535156
            ],
            "min" : [
                -382.20709228515625,
                -165.65664672851562,
                -133.0821075439453
            ],
            "type" : "VEC3"
        },
        {
            "bufferView" : 1,
            "componentType" : 5126,
            "count" : 1204,
            "type" : "VEC3"
        },
        {
            "bufferView" : 2,
            "componentType" : 5123,
            "count" : 7212,
            "type" : "SCALAR"
        }
    ],
    "bufferViews" : [
        {
            "buffer" : 0,
            "byteLength" : 14448,
            "byteOffset" : 0
        },
        {
            "buffer" : 0,
            "byteLength" : 14448,
            "byteOffset" : 14448
        },
        {
            "buffer" : 0,
            "byteLength" : 14424,
            "byteOffset" : 28896
        }
    ],
    "buffers" : [
        {
            "byteLength" : 43320,
            "uri" : "data:application/octet-stream;base64,"
        }
    ]
}
