{
    "asset" : {
        "generator" : "Khronos glTF Blender I/O v1.8.19",
        "version" : "2.0"
    },
    "scene" : 0,
    "scenes" : [
        {
            "name" : "Scene",
            "nodes" : [
                0
            ]
        }
    ],
    "nodes" : [
        {
            "mesh" : 0,
            "name" : "DinoPanel"
        }
    ],
    "materials" : [
        {
            "doubleSided" : true,
            "name" : "Bones",
            "pbrMetallicRoughness" : {
                "baseColorFactor" : [
                    0.476990282535553,
                    0.41244855523109436,
                    0.2778286933898926,
                    1
                ],
                "metallicFactor" : 0,
                "roughnessFactor" : 0.5
            }
        },
        {
            "doubleSided" : true,
            "name" : "Panel",
            "pbrMetallicRoughness" : {
                "baseColorFactor" : [
                    0.047986842691898346,
                    0.04875829443335533,
                    0.05496861785650253,
                    1
                ],
                "metallicFactor" : 0,
                "roughnessFactor" : 0.5
            }
        }
    ],
    "meshes" : [
        {
            "name" : "DinoPanel",
            "primitives" : [
                {
                    "attributes" : {
                        "POSITION" : 0,
                        "NORMAL" : 1,
                        "TEXCOORD_0" : 2
                    },
                    "indices" : 3,
                    "material" : 0
                },
                {
                    "attributes" : {
                        "POSITION" : 4,
                        "NORMAL" : 5,
                        "TEXCOORD_0" : 6
                    },
                    "indices" : 7,
                    "material" : 1
                }
            ]
        }
    ],
    "accessors" : [
        {
            "bufferView" : 0,
            "componentType" : 5126,
            "count" : 8186,
            "max" : [
                293.598876953125,
                211.1903533935547,
                47.75391387939453
            ],
            "min" : [
                -179.1785125732422,
                -119.75605773925781,
                -43.21576690673828
            ],
            "type" : "VEC3"
        },
        {
            "bufferView" : 1,
            "componentType" : 5126,
            "count" : 8186,
            "type" : "VEC3"
        },
        {
            "bufferView" : 2,
            "componentType" : 5126,
            "count" : 8186,
            "type" : "VEC2"
        },
        {
            "bufferView" : 3,
            "componentType" : 5123,
            "count" : 22614,
            "type" : "SCALAR"
        },
        {
            "bufferView" : 4,
            "componentType" : 5126,
            "count" : 144,
            "max" : [
                150,
                100,
                8.59798526763916
            ],
            "min" : [
                -150,
                -99.99998474121094,
                -8.59798526763916
            ],
            "type" : "VEC3"
        },
        {
            "bufferView" : 5,
            "componentType" : 5126,
            "count" : 144,
            "type" : "VEC3"
        },
        {
            "bufferView" : 6,
            "componentType" : 5126,
            "count" : 144,
            "type" : "VEC2"
        },
        {
            "bufferView" : 7,
            "componentType" : 5123,
            "count" : 276,
            "type" : "SCALAR"
        }
    ],
    "bufferViews" : [
        {
            "buffer" : 0,
            "byteLength" : 98232,
            "byteOffset" : 0
        },
        {
            "buffer" : 0,
            "byteLength" : 98232,
            "byteOffset" : 98232
        },
        {
            "buffer" : 0,
            "byteLength" : 65488,
            "byteOffset" : 196464
        },
        {
            "buffer" : 0,
            "byteLength" : 45228,
            "byteOffset" : 261952
        },
        {
            "buffer" : 0,
            "byteLength" : 1728,
            "byteOffset" : 307180
        },
        {
            "buffer" : 0,
            "byteLength" : 1728,
            "byteOffset" : 308908
        },
        {
            "buffer" : 0,
            "byteLength" : 1152,
            "byteOffset" : 310636
        },
        {
            "buffer" : 0,
            "byteLength" : 552,
            "byteOffset" : 311788
        }
    ],
    "buffers" : [
        {
            "byteLength" : 312340,
            "uri" : "data:application/octet-stream;base64,"
        }
    ]
}
