{
    "asset" : {
        "generator" : "Khronos glTF Blender I/O v1.8.19",
        "version" : "2.0"
    },
    "scene" : 0,
    "scenes" : [
        {
            "name" : "Scene",
            "nodes" : [
                0
            ]
        }
    ],
    "nodes" : [
        {
            "mesh" : 0,
            "name" : "DinoPanel-Ads",
            "rotation" : [
                0,
                0,
                -0.7071067690849304,
                0.7071068286895752
            ],
            "translation" : [
                0.0015661576762795448,
                -0.9389137029647827,
                0.11214573681354523
            ]
        }
    ],
    "materials" : [
        {
            "doubleSided" : true,
            "name" : "Bones",
            "pbrMetallicRoughness" : {
                "baseColorFactor" : [
                    0.476990282535553,
                    0.41244855523109436,
                    0.2778286933898926,
                    1
                ],
                "metallicFactor" : 0,
                "roughnessFactor" : 0.5
            }
        },
        {
            "doubleSided" : true,
            "name" : "Panel",
            "pbrMetallicRoughness" : {
                "baseColorFactor" : [
                    0.047986842691898346,
                    0.04875829443335533,
                    0.05496861785650253,
                    1
                ],
                "metallicFactor" : 0,
                "roughnessFactor" : 0.5
            }
        }
    ],
    "meshes" : [
        {
            "name" : "DinoPanel-Leaderboard.001",
            "primitives" : [
                {
                    "attributes" : {
                        "POSITION" : 0,
                        "NORMAL" : 1,
                        "TEXCOORD_0" : 2
                    },
                    "indices" : 3,
                    "material" : 0
                },
                {
                    "attributes" : {
                        "POSITION" : 4,
                        "NORMAL" : 5,
                        "TEXCOORD_0" : 6
                    },
                    "indices" : 7,
                    "material" : 1
                }
            ]
        }
    ],
    "accessors" : [
        {
            "bufferView" : 0,
            "componentType" : 5126,
            "count" : 15880,
            "max" : [
                184.11297607421875,
                334.07806396484375,
                75.21837615966797
            ],
            "min" : [
                -300.32080078125,
                -350.1964111328125,
                -46.98207092285156
            ],
            "type" : "VEC3"
        },
        {
            "bufferView" : 1,
            "componentType" : 5126,
            "count" : 15880,
            "type" : "VEC3"
        },
        {
            "bufferView" : 2,
            "componentType" : 5126,
            "count" : 15880,
            "type" : "VEC2"
        },
        {
            "bufferView" : 3,
            "componentType" : 5123,
            "count" : 44484,
            "type" : "SCALAR"
        },
        {
            "bufferView" : 4,
            "componentType" : 5126,
            "count" : 144,
            "max" : [
                150,
                240.49270629882812,
                8.59798526763916
            ],
            "min" : [
                -150,
                -240.49270629882812,
                -8.59798526763916
            ],
            "type" : "VEC3"
        },
        {
            "bufferView" : 5,
            "componentType" : 5126,
            "count" : 144,
            "type" : "VEC3"
        },
        {
            "bufferView" : 6,
            "componentType" : 5126,
            "count" : 144,
            "type" : "VEC2"
        },
        {
            "bufferView" : 7,
            "componentType" : 5123,
            "count" : 276,
            "type" : "SCALAR"
        }
    ],
    "bufferViews" : [
        {
            "buffer" : 0,
            "byteLength" : 190560,
            "byteOffset" : 0
        },
        {
            "buffer" : 0,
            "byteLength" : 190560,
            "byteOffset" : 190560
        },
        {
            "buffer" : 0,
            "byteLength" : 127040,
            "byteOffset" : 381120
        },
        {
            "buffer" : 0,
            "byteLength" : 88968,
            "byteOffset" : 508160
        },
        {
            "buffer" : 0,
            "byteLength" : 1728,
            "byteOffset" : 597128
        },
        {
            "buffer" : 0,
            "byteLength" : 1728,
            "byteOffset" : 598856
        },
        {
            "buffer" : 0,
            "byteLength" : 1152,
            "byteOffset" : 600584
        },
        {
            "buffer" : 0,
            "byteLength" : 552,
            "byteOffset" : 601736
        }
    ],
    "buffers" : [
        {
            "byteLength" : 602288,
            "uri" : "data:application/octet-stream;base64,"
        }
    ]
}
