{
    "asset" : {
        "generator" : "Khronos glTF Blender I/O v1.8.19",
        "version" : "2.0"
    },
    "scene" : 0,
    "scenes" : [
        {
            "name" : "Scene",
            "nodes" : [
                0
            ]
        }
    ],
    "nodes" : [
        {
            "mesh" : 0,
            "name" : "DinoPanel-Leaderboard"
        }
    ],
    "materials" : [
        {
            "doubleSided" : true,
            "name" : "Bones",
            "pbrMetallicRoughness" : {
                "baseColorFactor" : [
                    0.476990282535553,
                    0.41244855523109436,
                    0.2778286933898926,
                    1
                ],
                "metallicFactor" : 0,
                "roughnessFactor" : 0.5
            }
        },
        {
            "doubleSided" : true,
            "name" : "Panel",
            "pbrMetallicRoughness" : {
                "baseColorFactor" : [
                    0.047986842691898346,
                    0.04875829443335533,
                    0.05496861785650253,
                    1
                ],
                "metallicFactor" : 0,
                "roughnessFactor" : 0.5
            }
        }
    ],
    "meshes" : [
        {
            "name" : "DinoPanel-Leaderboard",
            "primitives" : [
                {
                    "attributes" : {
                        "POSITION" : 0,
                        "NORMAL" : 1,
                        "TEXCOORD_0" : 2
                    },
                    "indices" : 3,
                    "material" : 0
                },
                {
                    "attributes" : {
                        "POSITION" : 4,
                        "NORMAL" : 5,
                        "TEXCOORD_0" : 6
                    },
                    "indices" : 7,
                    "material" : 1
                }
            ]
        }
    ],
    "accessors" : [
        {
            "bufferView" : 0,
            "componentType" : 5126,
            "count" : 15672,
            "max" : [
                245.48516845703125,
                375.91375732421875,
                75.2183837890625
            ],
            "min" : [
                -256.9117126464844,
                -273.68115234375,
                -46.98212432861328
            ],
            "type" : "VEC3"
        },
        {
            "bufferView" : 1,
            "componentType" : 5126,
            "count" : 15672,
            "type" : "VEC3"
        },
        {
            "bufferView" : 2,
            "componentType" : 5126,
            "count" : 15672,
            "type" : "VEC2"
        },
        {
            "bufferView" : 3,
            "componentType" : 5123,
            "count" : 44172,
            "type" : "SCALAR"
        },
        {
            "bufferView" : 4,
            "componentType" : 5126,
            "count" : 144,
            "max" : [
                150,
                240.49270629882812,
                8.59798526763916
            ],
            "min" : [
                -150,
                -240.49270629882812,
                -8.59798526763916
            ],
            "type" : "VEC3"
        },
        {
            "bufferView" : 5,
            "componentType" : 5126,
            "count" : 144,
            "type" : "VEC3"
        },
        {
            "bufferView" : 6,
            "componentType" : 5126,
            "count" : 144,
            "type" : "VEC2"
        },
        {
            "bufferView" : 7,
            "componentType" : 5123,
            "count" : 276,
            "type" : "SCALAR"
        }
    ],
    "bufferViews" : [
        {
            "buffer" : 0,
            "byteLength" : 188064,
            "byteOffset" : 0
        },
        {
            "buffer" : 0,
            "byteLength" : 188064,
            "byteOffset" : 188064
        },
        {
            "buffer" : 0,
            "byteLength" : 125376,
            "byteOffset" : 376128
        },
        {
            "buffer" : 0,
            "byteLength" : 88344,
            "byteOffset" : 501504
        },
        {
            "buffer" : 0,
            "byteLength" : 1728,
            "byteOffset" : 589848
        },
        {
            "buffer" : 0,
            "byteLength" : 1728,
            "byteOffset" : 591576
        },
        {
            "buffer" : 0,
            "byteLength" : 1152,
            "byteOffset" : 593304
        },
        {
            "buffer" : 0,
            "byteLength" : 552,
            "byteOffset" : 594456
        }
    ],
    "buffers" : [
        {
            "byteLength" : 595008,
            "uri" : "data:application/octet-stream;base64,"
        }
    ]
}
