{
    "asset" : {
        "generator" : "Khronos glTF Blender I/O v1.8.19",
        "version" : "2.0"
    },
    "scene" : 0,
    "scenes" : [
        {
            "name" : "Scene",
            "nodes" : [
                0
            ]
        }
    ],
    "nodes" : [
        {
            "mesh" : 0,
            "name" : "DinoHand"
        }
    ],
    "materials" : [
        {
            "doubleSided" : true,
            "name" : "Hand_G",
            "pbrMetallicRoughness" : {
                "baseColorFactor" : [
                    0.011843821033835411,
                    0.2395513653755188,
                    0.012402824126183987,
                    1
                ],
                "metallicFactor" : 0,
                "roughnessFactor" : 0.5
            }
        },
        {
            "doubleSided" : true,
            "name" : "Hand_Y",
            "pbrMetallicRoughness" : {
                "baseColorFactor" : [
                    0.5173345804214478,
                    0.5019704699516296,
                    0.08712843060493469,
                    1
                ],
                "metallicFactor" : 0,
                "roughnessFactor" : 0.5
            }
        }
    ],
    "meshes" : [
        {
            "name" : "DinoHand.001",
            "primitives" : [
                {
                    "attributes" : {
                        "POSITION" : 0,
                        "NORMAL" : 1,
                        "TEXCOORD_0" : 2
                    },
                    "indices" : 3,
                    "material" : 0
                },
                {
                    "attributes" : {
                        "POSITION" : 4,
                        "NORMAL" : 5,
                        "TEXCOORD_0" : 6
                    },
                    "indices" : 7,
                    "material" : 1
                }
            ]
        }
    ],
    "accessors" : [
        {
            "bufferView" : 0,
            "componentType" : 5126,
            "count" : 1066,
            "max" : [
                6.215327262878418,
                4.1413960456848145,
                9.679794311523438
            ],
            "min" : [
                -6.270302772521973,
                -3.186809539794922,
                -5.952979564666748
            ],
            "type" : "VEC3"
        },
        {
            "bufferView" : 1,
            "componentType" : 5126,
            "count" : 1066,
            "type" : "VEC3"
        },
        {
            "bufferView" : 2,
            "componentType" : 5126,
            "count" : 1066,
            "type" : "VEC2"
        },
        {
            "bufferView" : 3,
            "componentType" : 5123,
            "count" : 4476,
            "type" : "SCALAR"
        },
        {
            "bufferView" : 4,
            "componentType" : 5126,
            "count" : 831,
            "max" : [
                5.810060977935791,
                2.9982893466949463,
                -4.4389214515686035
            ],
            "min" : [
                -5.81339168548584,
                -3.602844715118408,
                -10.701398849487305
            ],
            "type" : "VEC3"
        },
        {
            "bufferView" : 5,
            "componentType" : 5126,
            "count" : 831,
            "type" : "VEC3"
        },
        {
            "bufferView" : 6,
            "componentType" : 5126,
            "count" : 831,
            "type" : "VEC2"
        },
        {
            "bufferView" : 7,
            "componentType" : 5123,
            "count" : 3168,
            "type" : "SCALAR"
        }
    ],
    "bufferViews" : [
        {
            "buffer" : 0,
            "byteLength" : 12792,
            "byteOffset" : 0
        },
        {
            "buffer" : 0,
            "byteLength" : 12792,
            "byteOffset" : 12792
        },
        {
            "buffer" : 0,
            "byteLength" : 8528,
            "byteOffset" : 25584
        },
        {
            "buffer" : 0,
            "byteLength" : 8952,
            "byteOffset" : 34112
        },
        {
            "buffer" : 0,
            "byteLength" : 9972,
            "byteOffset" : 43064
        },
        {
            "buffer" : 0,
            "byteLength" : 9972,
            "byteOffset" : 53036
        },
        {
            "buffer" : 0,
            "byteLength" : 6648,
            "byteOffset" : 63008
        },
        {
            "buffer" : 0,
            "byteLength" : 6336,
            "byteOffset" : 69656
        }
    ],
    "buffers" : [
        {
            "byteLength" : 75992,
            "uri" : "data:application/octet-stream;base64,"
        }
    ]
}
