{
    "asset" : {
        "generator" : "Khronos glTF Blender I/O v1.8.19",
        "version" : "2.0"
    },
    "scene" : 0,
    "scenes" : [
        {
            "name" : "Scene",
            "nodes" : [
                0
            ]
        }
    ],
    "nodes" : [
        {
            "mesh" : 0,
            "name" : "Rock_6_Rock_6_0",
            "rotation" : [
                -0.003994374070316553,
                -0.7070955038070679,
                -0.7070955038070679,
                0.0039943731389939785
            ],
            "scale" : [
                0.4771915078163147,
                1,
                2.809274673461914
            ]
        }
    ],
    "materials" : [
        {
            "doubleSided" : true,
            "name" : "Rock_6",
            "pbrMetallicRoughness" : {}
        }
    ],
    "meshes" : [
        {
            "name" : "Rock_6_Rock_6_0",
            "primitives" : [
                {
                    "attributes" : {
                        "POSITION" : 0,
                        "NORMAL" : 1,
                        "TEXCOORD_0" : 2,
                        "TEXCOORD_1" : 3
                    },
                    "indices" : 4,
                    "material" : 0
                }
            ]
        }
    ],
    "accessors" : [
        {
            "bufferView" : 0,
            "componentType" : 5126,
            "count" : 1362,
            "max" : [
                1085.857421875,
                374.1125183105469,
                111.18426513671875
            ],
            "min" : [
                -1063.32275390625,
                -380.0033874511719,
                -61.18288803100586
            ],
            "type" : "VEC3"
        },
        {
            "bufferView" : 1,
            "componentType" : 5126,
            "count" : 1362,
            "type" : "VEC3"
        },
        {
            "bufferView" : 2,
            "componentType" : 5126,
            "count" : 1362,
            "type" : "VEC2"
        },
        {
            "bufferView" : 3,
            "componentType" : 5126,
            "count" : 1362,
            "type" : "VEC2"
        },
        {
            "bufferView" : 4,
            "componentType" : 5123,
            "count" : 3414,
            "type" : "SCALAR"
        }
    ],
    "bufferViews" : [
        {
            "buffer" : 0,
            "byteLength" : 16344,
            "byteOffset" : 0
        },
        {
            "buffer" : 0,
            "byteLength" : 16344,
            "byteOffset" : 16344
        },
        {
            "buffer" : 0,
            "byteLength" : 10896,
            "byteOffset" : 32688
        },
        {
            "buffer" : 0,
            "byteLength" : 10896,
            "byteOffset" : 43584
        },
        {
            "buffer" : 0,
            "byteLength" : 6828,
            "byteOffset" : 54480
        }
    ],
    "buffers" : [
        {
            "byteLength" : 61308,
            "uri" : "data:application/octet-stream;base64,"
        }
    ]
}
