{
    "asset" : {
        "generator" : "Khronos glTF Blender I/O v1.8.19",
        "version" : "2.0"
    },
    "scene" : 0,
    "scenes" : [
        {
            "name" : "Scene",
            "nodes" : [
                0
            ]
        }
    ],
    "nodes" : [
        {
            "mesh" : 0,
            "name" : "Rock_2_Rock_2_0",
            "rotation" : [
                -0.7071068286895752,
                0,
                0,
                0.7071067094802856
            ],
            "scale" : [
                5.404201030731201,
                5.404201507568359,
                5.404201507568359
            ]
        }
    ],
    "materials" : [
        {
            "doubleSided" : true,
            "name" : "Rock_2",
            "pbrMetallicRoughness" : {}
        }
    ],
    "meshes" : [
        {
            "name" : "Rock_2_Rock_2_0",
            "primitives" : [
                {
                    "attributes" : {
                        "POSITION" : 0,
                        "NORMAL" : 1,
                        "TEXCOORD_0" : 2,
                        "TEXCOORD_1" : 3
                    },
                    "indices" : 4,
                    "material" : 0
                }
            ]
        }
    ],
    "accessors" : [
        {
            "bufferView" : 0,
            "componentType" : 5126,
            "count" : 919,
            "max" : [
                130.5368194580078,
                138.35418701171875,
                126.09989929199219
            ],
            "min" : [
                -165.3036346435547,
                -166.4501495361328,
                -102.6361083984375
            ],
            "type" : "VEC3"
        },
        {
            "bufferView" : 1,
            "componentType" : 5126,
            "count" : 919,
            "type" : "VEC3"
        },
        {
            "bufferView" : 2,
            "componentType" : 5126,
            "count" : 919,
            "type" : "VEC2"
        },
        {
            "bufferView" : 3,
            "componentType" : 5126,
            "count" : 919,
            "type" : "VEC2"
        },
        {
            "bufferView" : 4,
            "componentType" : 5123,
            "count" : 1938,
            "type" : "SCALAR"
        }
    ],
    "bufferViews" : [
        {
            "buffer" : 0,
            "byteLength" : 11028,
            "byteOffset" : 0
        },
        {
            "buffer" : 0,
            "byteLength" : 11028,
            "byteOffset" : 11028
        },
        {
            "buffer" : 0,
            "byteLength" : 7352,
            "byteOffset" : 22056
        },
        {
            "buffer" : 0,
            "byteLength" : 7352,
            "byteOffset" : 29408
        },
        {
            "buffer" : 0,
            "byteLength" : 3876,
            "byteOffset" : 36760
        }
    ],
    "buffers" : [
        {
            "byteLength" : 40636,
            "uri" : "data:application/octet-stream;base64,"
        }
    ]
}
