{
    "asset" : {
        "generator" : "Khronos glTF Blender I/O v1.8.19",
        "version" : "2.0"
    },
    "scene" : 0,
    "scenes" : [
        {
            "name" : "Scene",
            "nodes" : [
                0
            ]
        }
    ],
    "nodes" : [
        {
            "mesh" : 0,
            "name" : "Rock_7_Rock_7_0",
            "rotation" : [
                -0.7065431475639343,
                -0.02822701632976532,
                -0.028226999565958977,
                0.7065432071685791
            ],
            "scale" : [
                0.5936017632484436,
                1.5547459125518799,
                2.8268473148345947
            ]
        }
    ],
    "materials" : [
        {
            "doubleSided" : true,
            "name" : "Rock_7",
            "pbrMetallicRoughness" : {}
        }
    ],
    "meshes" : [
        {
            "name" : "Rock_7_Rock_7_0",
            "primitives" : [
                {
                    "attributes" : {
                        "POSITION" : 0,
                        "NORMAL" : 1,
                        "TEXCOORD_0" : 2,
                        "TEXCOORD_1" : 3
                    },
                    "indices" : 4,
                    "material" : 0
                }
            ]
        }
    ],
    "accessors" : [
        {
            "bufferView" : 0,
            "componentType" : 5126,
            "count" : 799,
            "max" : [
                795.371826171875,
                209.749755859375,
                62.97856140136719
            ],
            "min" : [
                -1035.1593017578125,
                -251.46450805664062,
                -42.93048858642578
            ],
            "type" : "VEC3"
        },
        {
            "bufferView" : 1,
            "componentType" : 5126,
            "count" : 799,
            "type" : "VEC3"
        },
        {
            "bufferView" : 2,
            "componentType" : 5126,
            "count" : 799,
            "type" : "VEC2"
        },
        {
            "bufferView" : 3,
            "componentType" : 5126,
            "count" : 799,
            "type" : "VEC2"
        },
        {
            "bufferView" : 4,
            "componentType" : 5123,
            "count" : 1602,
            "type" : "SCALAR"
        }
    ],
    "bufferViews" : [
        {
            "buffer" : 0,
            "byteLength" : 9588,
            "byteOffset" : 0
        },
        {
            "buffer" : 0,
            "byteLength" : 9588,
            "byteOffset" : 9588
        },
        {
            "buffer" : 0,
            "byteLength" : 6392,
            "byteOffset" : 19176
        },
        {
            "buffer" : 0,
            "byteLength" : 6392,
            "byteOffset" : 25568
        },
        {
            "buffer" : 0,
            "byteLength" : 3204,
            "byteOffset" : 31960
        }
    ],
    "buffers" : [
        {
            "byteLength" : 35164,
            "uri" : "data:application/octet-stream;base64,"
        }
    ]
}
